PathFileType	4	(X/Y/Z)	C:\Users\Graham\Documents\MATLAB\MOtoNMS_v2_2\MyData\ElaboratedData\S6\17-05-19\staticElaborations\Static1\Static1\\Static1.trc
DataRate	CameraRate	NumFrames	NumMarkers	Units	OrigDataRate	DataStartFrame
100	100	7	38	mm	100	2
Frame#	Time	V_Sacral			R_ASIS			L_ASIS			R_Knee_Lat			R_Knee_Med			R_Thigh_Upper			R_Thigh_Front			R_Thigh_Rear			L_Knee_Lat			L_Knee_Med			L_Thigh_Upper			L_Thigh_Front			L_Thigh_Rear			R_Ankle_Lat			R_Ankle_Med			R_Shank_Upper			R_Shank_Front			R_Shank_Rear			L_Ankle_Lat			L_Ankle_Med			L_Shank_Upper			L_Shank_Front			L_Shank_Rear			R_Heel			R_MTP1			R_MTP5			L_Heel			L_MTP1			L_MTP5			Clavicle			R_Acromium			L_Acromium			LAJC			RAJC			LHJC			RHJC			LKJC			RKJC		
		X1	Y1	Z1	X2	Y2	Z2	X3	Y3	Z3	X4	Y4	Z4	X5	Y5	Z5	X6	Y6	Z6	X7	Y7	Z7	X8	Y8	Z8	X9	Y9	Z9	X10	Y10	Z10	X11	Y11	Z11	X12	Y12	Z12	X13	Y13	Z13	X14	Y14	Z14	X15	Y15	Z15	X16	Y16	Z16	X17	Y17	Z17	X18	Y18	Z18	X19	Y19	Z19	X20	Y20	Z20	X21	Y21	Z21	X22	Y22	Z22	X23	Y23	Z23	X24	Y24	Z24	X25	Y25	Z25	X26	Y26	Z26	X27	Y27	Z27	X28	Y28	Z28	X29	Y29	Z29	X30	Y30	Z30	X31	Y31	Z31	X32	Y32	Z32	X33	Y33	Z33	X34	Y34	Z34	X35	Y35	Z35	X36	Y36	Z36	X37	Y37	Z37	X38	Y38	Z38	

28	0.270000	-129.148894	1063.474964	16.576221	80.011386	1061.276531	167.556035	84.243134	1058.474658	-99.933344	-34.725963	547.692942	208.310948	5.014189	539.227729	88.234858	90.035142	815.496692	198.228138	91.740703	703.028211	150.414428	48.186837	707.780287	212.903961	-19.495606	561.970659	-140.023921	8.030633	534.259003	-27.111234	111.762690	804.977448	-100.165184	92.221248	691.194237	-54.921074	68.319619	691.298493	-130.171175	-135.088762	102.800141	206.151357	-81.014464	111.227784	120.564379	-13.677235	366.578585	190.143644	-39.612391	251.164910	149.926378	-59.530571	256.882845	214.951432	-115.887557	97.830962	-153.758970	-68.418228	100.483849	-64.073767	-5.582323	374.036370	-130.277197	-23.782467	265.925334	-91.538708	-47.965977	268.269455	-159.572224	-187.794573	32.193532	146.335191	45.521472	61.241060	187.349310	-0.916076	55.000361	256.668541	-173.438065	50.316322	-99.873649	66.376654	53.762781	-112.667350	28.131798	48.333876	-200.945066	70.530732	1486.562969	19.199659	-28.301822	1540.755975	224.204065	-10.999393	1530.623548	-181.943518	-92.152893	99.157406	-108.916368	-108.051613	107.013962	163.357868	21.245958	968.808366	-61.802496	18.222070	970.810505	129.337867	-5.732487	548.114831	-83.567578	-14.855887	543.460336	148.272903	
29	0.280000	-129.099538	1063.473536	16.559728	80.044233	1061.244351	167.549265	84.321249	1058.459037	-99.955887	-34.705182	547.689759	208.292511	5.027819	539.223165	88.219691	90.077762	815.484484	198.211632	91.775265	703.013644	150.395003	48.220022	707.769417	212.879297	-19.485720	561.973376	-140.028215	8.039324	534.253482	-27.116160	111.813374	804.956340	-100.181008	92.262454	691.179965	-54.937246	68.360511	691.283491	-130.180939	-135.087110	102.804485	206.149022	-81.012493	111.225545	120.561141	-13.668315	366.577256	190.132374	-39.606240	251.162308	149.914714	-59.523847	256.885450	214.941772	-115.883705	97.836335	-153.756824	-68.413998	100.488628	-64.074047	-5.576519	374.043759	-130.281796	-23.778387	265.933200	-91.542796	-47.963205	268.276570	-159.574620	-187.792272	32.194268	146.335055	45.521912	61.241943	187.351449	-0.916781	55.002024	256.666848	-173.437097	50.319510	-99.871994	66.377984	53.761499	-112.669705	28.132534	48.333212	-200.946673	70.628683	1486.543084	19.184690	-28.222459	1540.728600	224.182638	-10.869722	1530.607031	-181.972168	-92.148851	99.162481	-108.915436	-108.049801	107.015015	163.355081	21.307043	968.791683	-61.838657	18.250822	970.781980	129.312087	-5.723198	548.113429	-83.572188	-14.838682	543.456462	148.256101	
30	0.290000	-129.053938	1063.472175	16.549674	80.075338	1061.213865	167.545136	84.395144	1058.444378	-99.975535	-34.684140	547.686273	208.276862	5.047511	539.225683	88.210559	90.118173	815.473604	198.200699	91.810117	702.999642	150.382736	48.252405	707.758455	212.860601	-19.470741	561.969806	-140.030178	8.050725	534.237250	-27.123016	111.859243	804.937918	-100.199051	92.302082	691.166498	-54.956009	68.404924	691.269622	-130.195923	-135.085823	102.808816	206.146715	-81.009954	111.223992	120.558251	-13.657460	366.575864	190.123571	-39.598561	251.159666	149.905089	-59.516232	256.887727	214.933905	-115.879301	97.841755	-153.754836	-68.409366	100.493132	-64.074464	-5.567870	374.050321	-130.285578	-23.772554	265.940147	-91.545926	-47.958142	268.283198	-159.576542	-187.790134	32.195150	146.334643	45.521718	61.242010	187.354066	-0.918264	55.002991	256.664914	-173.436008	50.322873	-99.869851	66.379465	53.760142	-112.671836	28.133323	48.332444	-200.948457	70.721420	1486.523779	19.170004	-28.145537	1540.701505	224.160785	-10.742978	1530.597479	-181.997886	-92.144334	99.167444	-108.914650	-108.047888	107.016404	163.352483	21.364685	968.775788	-61.871133	18.277902	970.754768	129.289825	-5.710008	548.103528	-83.576597	-14.818314	543.455978	148.243711	
31	0.300000	-129.010505	1063.472264	16.544926	80.105139	1061.185726	167.543796	84.465513	1058.430730	-99.991888	-34.663729	547.682792	208.264160	5.072241	539.235986	88.207264	90.155446	815.463738	198.195777	91.844288	702.986253	150.378140	48.283058	707.747514	212.848832	-19.451531	561.955781	-140.029151	8.060198	534.203207	-27.129753	111.900212	804.921434	-100.217770	92.341674	691.152550	-54.976461	68.453514	691.255615	-130.216131	-135.084961	102.813043	206.144381	-81.006949	111.223334	120.555842	-13.645337	366.574778	190.117490	-39.589614	251.157549	149.897935	-59.508240	256.889865	214.928048	-115.874525	97.847313	-153.752965	-68.404454	100.497259	-64.074881	-5.557352	374.056297	-130.287808	-23.765385	265.946315	-91.547644	-47.951244	268.289529	-159.577540	-187.788443	32.196249	146.333913	45.521101	61.241148	187.356815	-0.920314	55.003124	256.662926	-173.434724	50.326434	-99.867201	66.381213	53.758696	-112.673519	28.134186	48.331529	-200.950257	70.808782	1486.505344	19.155487	-28.070988	1540.675628	224.138204	-10.620102	1530.594879	-182.021044	-92.139489	99.172286	-108.913923	-108.045955	107.018188	163.350111	21.419285	968.761210	-61.899432	18.303528	970.729825	129.271407	-5.695667	548.079494	-83.579452	-14.795744	543.459389	148.235712	
32	0.310000	-128.967578	1063.474991	16.544297	80.134169	1061.160403	167.545406	84.533172	1058.417956	-100.004473	-34.644810	547.679604	208.254533	5.100367	539.254090	88.209230	90.188910	815.454439	198.197188	91.876751	702.973411	150.381411	48.311138	707.736649	212.844732	-19.429581	561.927596	-140.024629	8.063152	534.144985	-27.133563	111.936893	804.905871	-100.235641	92.383836	691.136585	-54.997817	68.506684	691.240071	-130.241315	-135.084540	102.817043	206.142012	-81.003688	111.223648	120.554013	-13.632745	366.574271	190.114191	-39.579936	251.156389	149.893496	-59.500417	256.892001	214.924252	-115.869591	97.853070	-153.751094	-68.399408	100.500892	-64.075124	-5.546115	374.061889	-130.287758	-23.757453	265.951845	-91.547574	-47.943214	268.295711	-159.577132	-187.787425	32.197615	146.332869	45.520349	61.239393	187.359192	-0.922666	55.002448	256.661074	-173.433194	50.330174	-99.864104	66.383285	53.757161	-112.674599	28.135112	48.330458	-200.951923	70.890628	1486.487989	19.140982	-27.998791	1540.651632	224.114876	-10.502208	1530.598615	-182.042182	-92.134500	99.176981	-108.913109	-108.044114	107.020345	163.348013	21.471360	968.748305	-61.923004	18.328013	970.707945	129.257176	-5.683214	548.036290	-83.579096	-14.772222	543.466847	148.231881	
33	0.320000	-128.923631	1063.481204	16.546640	80.162954	1061.138124	167.550118	84.598953	1058.405712	-100.012829	-34.628201	547.676947	208.248069	5.129858	539.279305	88.215601	90.218081	815.445177	198.205098	91.906414	702.960914	150.392439	48.335819	707.725855	212.848737	-19.406765	561.882394	-140.016380	8.055921	534.057706	-27.131050	111.970367	804.890054	-100.251290	92.431700	691.117000	-55.019472	68.564370	691.221634	-130.270991	-135.084539	102.820664	206.139641	-81.000456	111.224865	120.552821	-13.620535	366.574498	190.113543	-39.570271	251.156427	149.891806	-59.493316	256.894191	214.922407	-115.864714	97.859048	-153.749050	-68.394376	100.503910	-64.075007	-5.535258	374.067215	-130.284822	-23.749389	265.956826	-91.545450	-47.934852	268.301810	-159.574885	-187.787209	32.199249	146.331567	45.519801	61.236947	187.360565	-0.925035	55.001136	256.659519	-173.431401	50.334039	-99.860697	66.385668	53.755543	-112.675010	28.136053	48.329246	-200.953322	70.966900	1486.471800	19.126278	-27.928927	1540.629774	224.091038	-10.390412	1530.607604	-182.061894	-92.129545	99.181479	-108.912028	-108.042498	107.022765	163.346231	21.521456	968.737184	-61.941329	18.351685	970.689646	129.247448	-5.675422	547.970050	-83.573715	-14.749171	543.478126	148.231835	
34	0.330000	-128.877455	1063.491307	16.550920	80.191918	1061.118821	167.558047	84.663605	1058.393452	-100.016593	-34.614635	547.674971	208.244798	5.158589	539.310296	88.225353	90.242601	815.435396	198.219456	91.932158	702.948438	150.410829	48.356265	707.715065	212.860907	-19.385034	561.818471	-140.004500	8.036551	533.938610	-27.118452	112.001927	804.872778	-100.263556	92.488306	691.092324	-55.040989	68.626021	691.199149	-130.304440	-135.084910	102.823730	206.137334	-80.997565	111.226768	120.552277	-13.609518	366.575480	190.115250	-39.561458	251.157677	149.892686	-59.487450	256.896409	214.922261	-115.860067	97.865232	-153.746639	-68.389481	100.506209	-64.074357	-5.525611	374.072273	-130.278586	-23.741766	265.961251	-91.541121	-47.926883	268.307779	-159.570472	-187.787811	32.201082	146.330106	45.519811	61.234165	187.360234	-0.927136	54.999449	256.658385	-173.429371	50.337941	-99.857168	66.388283	53.753853	-112.674775	28.136941	48.327935	-200.954345	71.037668	1486.456697	19.111137	-27.861343	1540.609833	224.067124	-10.285672	1530.620448	-182.080730	-92.124774	99.185721	-108.910498	-108.041237	107.025249	163.344806	21.570075	968.727663	-61.954006	18.374814	970.675085	129.242461	-5.674241	547.878540	-83.561476	-14.728023	543.492634	148.235075	
